<?xml version="1.0" encoding="UTF-8" standalone="no"?>
<!-- Generator: Adobe Illustrator 21.0.0, SVG Export Plug-In . SVG Version: 6.00 Build 0)  -->

<svg
   xmlns:dc="http://purl.org/dc/elements/1.1/"
   xmlns:cc="http://creativecommons.org/ns#"
   xmlns:rdf="http://www.w3.org/1999/02/22-rdf-syntax-ns#"
   xmlns:svg="http://www.w3.org/2000/svg"
   xmlns="http://www.w3.org/2000/svg"
   xmlns:sodipodi="http://sodipodi.sourceforge.net/DTD/sodipodi-0.dtd"
   xmlns:inkscape="http://www.inkscape.org/namespaces/inkscape"
   version="1.1"
   id="Capa_1"
   x="0px"
   y="0px"
   viewBox="0 0 684 396"
   style="enable-background:new 0 0 684 396;"
   xml:space="preserve"
   sodipodi:docname="continua.svg"
   inkscape:version="0.92.5 (2060ec1f9f, 2020-04-08)"><metadata
   id="metadata45"><rdf:RDF><cc:Work
       rdf:about=""><dc:format>image/svg+xml</dc:format><dc:type
         rdf:resource="http://purl.org/dc/dcmitype/StillImage" /></cc:Work></rdf:RDF></metadata><defs
   id="defs43" /><sodipodi:namedview
   pagecolor="#ffffff"
   bordercolor="#666666"
   borderopacity="1"
   objecttolerance="10"
   gridtolerance="10"
   guidetolerance="10"
   inkscape:pageopacity="0"
   inkscape:pageshadow="2"
   inkscape:window-width="1366"
   inkscape:window-height="712"
   id="namedview41"
   showgrid="false"
   inkscape:zoom="5.7395568"
   inkscape:cx="38.399574"
   inkscape:cy="312.50235"
   inkscape:window-x="0"
   inkscape:window-y="0"
   inkscape:window-maximized="1"
   inkscape:current-layer="Capa_1" />
<style
   type="text/css"
   id="style2">
	.st0{fill:#FFFFFF;}
	.st1{fill:#FFFFFF;stroke:#FFFFFF;stroke-miterlimit:10;}
</style>
<g
   id="g6"
   style="fill:#000000">
	<rect
   x="35.1"
   y="217.5"
   class="st0"
   width="612.6"
   height="3.1"
   id="rect4"
   style="fill:#000000" />
</g>
<g
   id="g10"
   style="fill:#000000">
	<polygon
   class="st0"
   points="653.6,219.4 645.5,214.7 645.5,224.1  "
   id="polygon8"
   style="fill:#000000" />
</g>
<g
   id="g20"
   style="fill:#000000;stroke:none;stroke-opacity:1">
	<g
   id="g14"
   style="fill:#000000;stroke:none;stroke-opacity:1">
		<rect
   x="33.5"
   y="86.6"
   class="st1"
   width="3.1"
   height="275"
   id="rect12"
   style="fill:#000000;stroke:none;stroke-opacity:1" />
	</g>
	<g
   id="g18"
   style="fill:#000000;stroke:none;stroke-opacity:1">
		<polygon
   class="st1"
   points="35.1,82.5 30.4,90.7 39.8,90.7   "
   id="polygon16"
   style="fill:#000000;stroke:none;stroke-opacity:1" />
	</g>
</g>
<g
   id="g30"
   style="fill:#000000">
	<path
   class="st0"
   d="M12.1,35.6l0.3-1h0.3c0.4,0,0.8-0.1,1.1-0.3c0.3-0.2,0.8-0.6,1.3-1.3l3-3.6l-1.5-3.6c-0.3-0.7-0.5-1.2-0.7-1.4   c-0.2-0.2-0.5-0.3-0.9-0.3h-0.3l0.2-1h3.1l1.8,4.7l3.1-4.7h3l-0.4,1H25c-0.5,0-0.8,0.1-1.1,0.3c-0.3,0.2-0.7,0.7-1.3,1.4l-2.4,3.1   l1.6,4c0.3,0.7,0.5,1.1,0.7,1.4c0.2,0.2,0.5,0.3,1,0.3h0.3l-0.2,1h-3.1l-1.9-5.1l-3.5,5.1H12.1z"
   id="path22"
   style="fill:#000000" />
	<path
   class="st0"
   d="M29,28.2c0,0.9,0,1.8,0.1,2.7c0.1,0.9,0.2,1.8,0.5,2.6c0.2,0.8,0.6,1.6,1.1,2.2c0.5,0.7,1.1,1.3,1.9,1.7v1.1   c-1.1-0.4-2-0.9-2.7-1.5c-0.8-0.6-1.4-1.3-1.9-2.2c-0.5-0.8-0.8-1.8-1.1-2.9c-0.2-1.1-0.3-2.3-0.3-3.7c0-1.4,0.1-2.6,0.3-3.7   c0.2-1.1,0.6-2,1.1-2.9c0.5-0.8,1.1-1.6,1.9-2.2c0.8-0.6,1.7-1.1,2.7-1.5v1c-0.8,0.5-1.4,1.1-1.9,1.7c-0.5,0.7-0.8,1.4-1.1,2.2   c-0.2,0.8-0.4,1.7-0.5,2.6C29.1,26.4,29,27.3,29,28.2z"
   id="path24"
   style="fill:#000000" />
	<path
   class="st0"
   d="M40.3,33.9l0.4,0.9c-1,0.7-2.1,1.1-3.1,1.1c-1.7,0-2.5-0.9-2.5-2.7c0-0.6,0.1-1.2,0.2-2l1.4-6.7h-1.8l0.2-0.9   c1.5,0,2.7-1.1,3.6-3.3h1.1l-0.6,2.9H42l-0.3,1.3h-2.8l-1.4,6.6c-0.2,0.9-0.3,1.6-0.3,2c0,0.8,0.4,1.3,1.2,1.3   C39.1,34.4,39.7,34.2,40.3,33.9z"
   id="path26"
   style="fill:#000000" />
	<path
   class="st0"
   d="M46.2,28.2c0-0.9,0-1.8-0.1-2.7c-0.1-0.9-0.2-1.8-0.5-2.6c-0.2-0.8-0.6-1.5-1.1-2.2c-0.5-0.7-1.1-1.3-1.9-1.7   v-1c1.1,0.4,2,0.9,2.7,1.5c0.8,0.6,1.4,1.3,1.9,2.2c0.5,0.8,0.8,1.8,1.1,2.9c0.2,1.1,0.3,2.3,0.3,3.7c0,1.4-0.1,2.6-0.3,3.7   c-0.2,1.1-0.6,2.1-1.1,2.9c-0.5,0.8-1.1,1.6-1.9,2.2c-0.8,0.6-1.7,1.1-2.7,1.5v-1.1c0.8-0.5,1.4-1.1,1.9-1.7   c0.5-0.7,0.8-1.4,1.1-2.2c0.2-0.8,0.4-1.7,0.5-2.6C46.2,30.1,46.2,29.2,46.2,28.2z"
   id="path28"
   style="fill:#000000" />
</g>
<g
   id="g34"
   style="fill:#000000">
	<path
   class="st0"
   d="M240.4,361c-0.1,0-0.2,0-0.3,0c-33.9-0.6-52.6-90.1-53.4-93.9c-15.6-59.9-57.9-165.2-59.2-168.4   c-7.5-14.6-15.5-21.6-23.7-20.6C70.1,82.1,39,208.8,38.7,210l-3-0.7c1.3-5.3,32-130,67.9-134.2c9.7-1.1,18.7,6.4,26.9,22.3l0.1,0.1   c0.4,1.1,43.4,108.2,59.3,168.9c0.2,1,18.9,90.9,50.4,91.5c0.1,0,0.2,0,0.3,0c32.9,0,63.7-98.6,83.7-181.4   c0.9-4.1,22.4-100.7,56.5-102c19.3-0.8,38.3,29.3,56.5,89.4l0,0.1c0.1,0.5,10.8,48.5,26.9,96.2c21.1,62.5,41.6,96.1,59.3,97   c12.6,0.6,24.4-15.4,35.1-47.6c0.1-0.5,16.4-56.3,36-112.7c26.4-76.2,46.2-117.3,58.6-122.2l1.2,2.9c-22.4,8.8-70.5,156.2-92.8,233   c-11.1,33.5-23.3,49.8-37.3,49.8c-0.3,0-0.6,0-0.9,0c-45.6-2.3-87.2-186.8-89.1-195.5c-17.7-58.5-35.6-87.8-53.3-87.1   c-31.7,1.3-53.3,98.6-53.5,99.6c-15.9,65.7-31.8,114.4-47.3,144.8C266.7,347.9,253.4,361,240.4,361z"
   id="path32"
   style="fill:#000000" />
</g>
<g
   id="g38"
   style="fill:#000000">
	<path
   class="st0"
   d="M666.5,233l0.4,0.9c-1,0.7-2.1,1.1-3.1,1.1c-1.7,0-2.5-0.9-2.5-2.7c0-0.6,0.1-1.2,0.2-2l1.4-6.7h-1.8l0.2-0.9   c1.5,0,2.7-1.1,3.6-3.3h1.1l-0.6,2.9h2.8l-0.3,1.3H665l-1.4,6.6c-0.2,0.9-0.3,1.6-0.3,2c0,0.8,0.4,1.3,1.2,1.3   C665.2,233.5,665.8,233.3,666.5,233z"
   id="path36"
   style="fill:#000000" />
</g>
</svg>