<?xml version="1.0" encoding="UTF-8" standalone="no"?>
<!-- Generator: Adobe Illustrator 21.0.0, SVG Export Plug-In . SVG Version: 6.00 Build 0)  -->

<svg
   xmlns:dc="http://purl.org/dc/elements/1.1/"
   xmlns:cc="http://creativecommons.org/ns#"
   xmlns:rdf="http://www.w3.org/1999/02/22-rdf-syntax-ns#"
   xmlns:svg="http://www.w3.org/2000/svg"
   xmlns="http://www.w3.org/2000/svg"
   xmlns:sodipodi="http://sodipodi.sourceforge.net/DTD/sodipodi-0.dtd"
   xmlns:inkscape="http://www.inkscape.org/namespaces/inkscape"
   version="1.1"
   id="Capa_1"
   x="0px"
   y="0px"
   viewBox="0 0 561 396"
   style="enable-background:new 0 0 561 396;"
   xml:space="preserve"
   sodipodi:docname="discreta.svg"
   inkscape:version="0.92.5 (2060ec1f9f, 2020-04-08)"><metadata
   id="metadata865"><rdf:RDF><cc:Work
       rdf:about=""><dc:format>image/svg+xml</dc:format><dc:type
         rdf:resource="http://purl.org/dc/dcmitype/StillImage" /></cc:Work></rdf:RDF></metadata><defs
   id="defs863" /><sodipodi:namedview
   pagecolor="#ffffff"
   bordercolor="#666666"
   borderopacity="1"
   objecttolerance="10"
   gridtolerance="10"
   guidetolerance="10"
   inkscape:pageopacity="0"
   inkscape:pageshadow="2"
   inkscape:window-width="1366"
   inkscape:window-height="712"
   id="namedview861"
   showgrid="false"
   inkscape:zoom="2.3838384"
   inkscape:cx="62.511318"
   inkscape:cy="407.93061"
   inkscape:window-x="0"
   inkscape:window-y="0"
   inkscape:window-maximized="1"
   inkscape:current-layer="Capa_1" />
<style
   type="text/css"
   id="style2">
	.st0{fill:#FFFFFF;}
</style>
<g
   id="g12"
   style="fill:#000000">
	<path
   class="st0"
   d="M32.2,49.9l0.2-0.9h0.3c0.4,0,0.8-0.1,1.1-0.3c0.3-0.2,0.7-0.6,1.3-1.3l2.8-3.5l-1.4-3.5   c-0.3-0.7-0.5-1.1-0.7-1.3c-0.2-0.2-0.5-0.3-0.9-0.3h-0.3l0.2-0.9h3l1.7,4.5l3-4.5h2.8l-0.4,0.9h-0.3c-0.4,0-0.8,0.1-1.1,0.3   c-0.3,0.2-0.7,0.6-1.2,1.3l-2.3,3l1.5,3.9c0.3,0.7,0.5,1.1,0.7,1.3s0.5,0.3,0.9,0.3h0.3l-0.2,0.9h-3L38.4,45L35,49.9H32.2z"
   id="path4"
   style="fill:#000000" />
	<path
   class="st0"
   d="M24.4,79.5V59.7h5v0.9h-1c-0.2,0-0.5,0-0.7,0.1c-0.2,0-0.4,0.1-0.6,0.2s-0.3,0.3-0.4,0.5   c-0.1,0.2-0.1,0.5-0.1,0.8V77c0,0.3,0,0.6,0.1,0.8c0.1,0.2,0.2,0.4,0.4,0.5c0.2,0.1,0.4,0.2,0.6,0.2c0.2,0,0.5,0.1,0.7,0.1h1v0.9   H24.4z"
   id="path6"
   style="fill:#000000" />
	<path
   class="st0"
   d="M36.8,75.7v0.9h-6v-0.9H31c0.3,0,0.5,0,0.7-0.1c0.2,0,0.4-0.1,0.6-0.2c0.2-0.1,0.3-0.3,0.4-0.5   c0.1-0.2,0.1-0.5,0.1-0.8v-6.9c0-0.3,0-0.6-0.1-0.8s-0.2-0.4-0.4-0.5c-0.2-0.1-0.4-0.2-0.6-0.2c-0.2,0-0.5-0.1-0.7-0.1H31v-0.9h3.6   l0.3,1.8H35c0.2-0.4,0.5-0.8,0.7-1c0.3-0.3,0.5-0.5,0.8-0.6s0.6-0.2,0.9-0.3c0.3-0.1,0.7-0.1,1-0.1c0.6,0,1.1,0.1,1.6,0.3   c0.5,0.2,0.9,0.4,1.2,0.8c0.3,0.4,0.6,0.8,0.7,1.4c0.2,0.5,0.3,1.2,0.3,2v5.3c0,0.3,0,0.6,0.1,0.8c0.1,0.2,0.2,0.4,0.4,0.5   c0.2,0.1,0.3,0.2,0.5,0.2c0.2,0,0.4,0.1,0.7,0.1H44v0.9h-3.9V69c0-0.5,0-0.9-0.1-1.3c-0.1-0.4-0.2-0.7-0.4-1   c-0.2-0.3-0.4-0.5-0.8-0.6c-0.3-0.1-0.7-0.2-1.1-0.2c-0.5,0-0.9,0.1-1.3,0.3c-0.3,0.2-0.6,0.5-0.8,0.8s-0.4,0.7-0.5,1.2   c-0.1,0.4-0.1,0.9-0.1,1.4v4.7c0,0.3,0,0.6,0.1,0.8c0.1,0.2,0.2,0.3,0.4,0.5c0.2,0.1,0.4,0.2,0.6,0.2S36.5,75.7,36.8,75.7   L36.8,75.7z"
   id="path8"
   style="fill:#000000" />
	<path
   class="st0"
   d="M45.4,79.5v-0.9h1c0.3,0,0.5,0,0.7-0.1c0.2,0,0.4-0.1,0.6-0.2c0.2-0.1,0.3-0.3,0.4-0.5   c0.1-0.2,0.1-0.5,0.1-0.8V62.3c0-0.3,0-0.6-0.1-0.8c-0.1-0.2-0.2-0.4-0.4-0.5s-0.4-0.2-0.6-0.2s-0.5-0.1-0.7-0.1h-1v-0.9h5v19.8   H45.4z"
   id="path10"
   style="fill:#000000" />
</g>
<g
   id="g194"
   style="fill:#000000">
	<g
   id="g30"
   style="fill:#000000">
		<g
   id="g20"
   style="fill:#000000">
			<g
   id="g18"
   style="fill:#000000">
				<g
   id="g16"
   style="fill:#000000">
					<rect
   x="115.8"
   y="29.7"
   class="st0"
   width="3.1"
   height="170.1"
   id="rect14"
   style="fill:#000000" />
				</g>
			</g>
		</g>
		<g
   id="g28"
   style="fill:#000000">
			<g
   id="g26"
   style="fill:#000000">
				<g
   id="g24"
   style="fill:#000000">
					<circle
   class="st0"
   cx="117.4"
   cy="26.6"
   r="3.8"
   id="circle22"
   style="fill:#000000" />
				</g>
			</g>
		</g>
	</g>
	<g
   id="g48"
   style="fill:#000000">
		<g
   id="g38"
   style="fill:#000000">
			<g
   id="g36"
   style="fill:#000000">
				<g
   id="g34"
   style="fill:#000000">
					<rect
   x="98.6"
   y="63.7"
   class="st0"
   width="3.1"
   height="136.1"
   id="rect32"
   style="fill:#000000" />
				</g>
			</g>
		</g>
		<g
   id="g46"
   style="fill:#000000">
			<g
   id="g44"
   style="fill:#000000">
				<g
   id="g42"
   style="fill:#000000">
					<circle
   class="st0"
   cx="100.2"
   cy="62.7"
   r="3.8"
   id="circle40"
   style="fill:#000000" />
				</g>
			</g>
		</g>
	</g>
	<g
   id="g66"
   style="fill:#000000">
		<g
   id="g56"
   style="fill:#000000">
			<g
   id="g54"
   style="fill:#000000">
				<g
   id="g52"
   style="fill:#000000">
					<rect
   x="135.1"
   y="49.6"
   class="st0"
   width="3.1"
   height="148.9"
   id="rect50"
   style="fill:#000000" />
				</g>
			</g>
		</g>
		<g
   id="g64"
   style="fill:#000000">
			<g
   id="g62"
   style="fill:#000000">
				<g
   id="g60"
   style="fill:#000000">
					<circle
   class="st0"
   cx="137.7"
   cy="48.8"
   r="3.8"
   id="circle58"
   style="fill:#000000" />
				</g>
			</g>
		</g>
	</g>
	<g
   id="g84"
   style="fill:#000000">
		<g
   id="g74"
   style="fill:#000000">
			<g
   id="g72"
   style="fill:#000000">
				<g
   id="g70"
   style="fill:#000000">
					<rect
   x="88.8"
   y="102.1"
   class="st0"
   width="3.1"
   height="97.7"
   id="rect68"
   style="fill:#000000" />
				</g>
			</g>
		</g>
		<g
   id="g82"
   style="fill:#000000">
			<g
   id="g80"
   style="fill:#000000">
				<g
   id="g78"
   style="fill:#000000">
					<circle
   class="st0"
   cx="90.3"
   cy="100.5"
   r="3.8"
   id="circle76"
   style="fill:#000000" />
				</g>
			</g>
		</g>
	</g>
	<g
   id="g102"
   style="fill:#000000">
		<g
   id="g92"
   style="fill:#000000">
			<g
   id="g90"
   style="fill:#000000">
				<g
   id="g88"
   style="fill:#000000">
					<rect
   x="79.7"
   y="148.8"
   class="st0"
   width="3.1"
   height="49.7"
   id="rect86"
   style="fill:#000000" />
				</g>
			</g>
		</g>
		<g
   id="g100"
   style="fill:#000000">
			<g
   id="g98"
   style="fill:#000000">
				<g
   id="g96"
   style="fill:#000000">
					<circle
   class="st0"
   cx="81.3"
   cy="146.9"
   r="3.8"
   id="circle94"
   style="fill:#000000" />
				</g>
			</g>
		</g>
	</g>
	<g
   id="g120"
   style="fill:#000000">
		<g
   id="g110"
   style="fill:#000000">
			<g
   id="g108"
   style="fill:#000000">
				<g
   id="g106"
   style="fill:#000000">
					<rect
   x="144.2"
   y="83.6"
   class="st0"
   width="3.1"
   height="111.7"
   id="rect104"
   style="fill:#000000" />
				</g>
			</g>
		</g>
		<g
   id="g118"
   style="fill:#000000">
			<g
   id="g116"
   style="fill:#000000">
				<g
   id="g114"
   style="fill:#000000">
					<circle
   class="st0"
   cx="145.8"
   cy="82.3"
   r="3.8"
   id="circle112"
   style="fill:#000000" />
				</g>
			</g>
		</g>
	</g>
	<g
   id="g156"
   style="fill:#000000">
		<g
   id="g128"
   style="fill:#000000">
			<g
   id="g126"
   style="fill:#000000">
				<g
   id="g124"
   style="fill:#000000">
					<rect
   x="153.7"
   y="126.1"
   class="st0"
   width="3.1"
   height="70.7"
   id="rect122"
   style="fill:#000000" />
				</g>
			</g>
		</g>
		<g
   id="g136"
   style="fill:#000000">
			<g
   id="g134"
   style="fill:#000000">
				<g
   id="g132"
   style="fill:#000000">
					<circle
   class="st0"
   cx="155.3"
   cy="125.1"
   r="3.8"
   id="circle130"
   style="fill:#000000" />
				</g>
			</g>
		</g>
		<g
   id="g154"
   style="fill:#000000">
			<g
   id="g144"
   style="fill:#000000">
				<g
   id="g142"
   style="fill:#000000">
					<g
   id="g140"
   style="fill:#000000">
						<rect
   x="162.7"
   y="175.7"
   class="st0"
   width="3.1"
   height="22.1"
   id="rect138"
   style="fill:#000000" />
					</g>
				</g>
			</g>
			<g
   id="g152"
   style="fill:#000000">
				<g
   id="g150"
   style="fill:#000000">
					<g
   id="g148"
   style="fill:#000000">
						<circle
   class="st0"
   cx="164.2"
   cy="174.7"
   r="3.8"
   id="circle146"
   style="fill:#000000" />
					</g>
				</g>
			</g>
		</g>
	</g>
	<g
   id="g174"
   style="fill:#000000">
		<g
   id="g164"
   style="fill:#000000">
			<g
   id="g162"
   style="fill:#000000">
				<g
   id="g160"
   style="fill:#000000">
					<rect
   x="125.3"
   y="33"
   class="st0"
   width="3.1"
   height="165.5"
   id="rect158"
   style="fill:#000000" />
				</g>
			</g>
		</g>
		<g
   id="g172"
   style="fill:#000000">
			<g
   id="g170"
   style="fill:#000000">
				<g
   id="g168"
   style="fill:#000000">
					<circle
   class="st0"
   cx="126.9"
   cy="31.3"
   r="3.8"
   id="circle166"
   style="fill:#000000" />
				</g>
			</g>
		</g>
	</g>
	<g
   id="g192"
   style="fill:#000000">
		<g
   id="g182"
   style="fill:#000000">
			<g
   id="g180"
   style="fill:#000000">
				<g
   id="g178"
   style="fill:#000000">
					<rect
   x="107.9"
   y="38.9"
   class="st0"
   width="3.1"
   height="160.8"
   id="rect176"
   style="fill:#000000" />
				</g>
			</g>
		</g>
		<g
   id="g190"
   style="fill:#000000">
			<g
   id="g188"
   style="fill:#000000">
				<g
   id="g186"
   style="fill:#000000">
					<circle
   class="st0"
   cx="109.5"
   cy="38"
   r="3.8"
   id="circle184"
   style="fill:#000000" />
				</g>
			</g>
		</g>
	</g>
</g>
<g
   id="g384"
   style="fill:#000000">
	<g
   id="g212"
   style="fill:#000000">
		<g
   id="g202"
   style="fill:#000000">
			<g
   id="g200"
   style="fill:#000000">
				<g
   id="g198"
   style="fill:#000000">
					<rect
   x="311.1"
   y="28.5"
   class="st0"
   width="3.1"
   height="170.1"
   id="rect196"
   style="fill:#000000" />
				</g>
			</g>
		</g>
		<g
   id="g210"
   style="fill:#000000">
			<g
   id="g208"
   style="fill:#000000">
				<g
   id="g206"
   style="fill:#000000">
					<circle
   class="st0"
   cx="312.7"
   cy="26.4"
   r="3.8"
   id="circle204"
   style="fill:#000000" />
				</g>
			</g>
		</g>
	</g>
	<g
   id="g230"
   style="fill:#000000">
		<g
   id="g220"
   style="fill:#000000">
			<g
   id="g218"
   style="fill:#000000">
				<g
   id="g216"
   style="fill:#000000">
					<rect
   x="292.9"
   y="63.6"
   class="st0"
   width="3.1"
   height="134.3"
   id="rect214"
   style="fill:#000000" />
				</g>
			</g>
		</g>
		<g
   id="g228"
   style="fill:#000000">
			<g
   id="g226"
   style="fill:#000000">
				<g
   id="g224"
   style="fill:#000000">
					<circle
   class="st0"
   cx="294.5"
   cy="61.5"
   r="3.8"
   id="circle222"
   style="fill:#000000" />
				</g>
			</g>
		</g>
	</g>
	<g
   id="g248"
   style="fill:#000000">
		<g
   id="g238"
   style="fill:#000000">
			<g
   id="g236"
   style="fill:#000000">
				<g
   id="g234"
   style="fill:#000000">
					<rect
   x="329.4"
   y="49.6"
   class="st0"
   width="3.1"
   height="147.7"
   id="rect232"
   style="fill:#000000" />
				</g>
			</g>
		</g>
		<g
   id="g246"
   style="fill:#000000">
			<g
   id="g244"
   style="fill:#000000">
				<g
   id="g242"
   style="fill:#000000">
					<circle
   class="st0"
   cx="331"
   cy="49.6"
   r="3.8"
   id="circle240"
   style="fill:#000000" />
				</g>
			</g>
		</g>
	</g>
	<g
   id="g266"
   style="fill:#000000">
		<g
   id="g256"
   style="fill:#000000">
			<g
   id="g254"
   style="fill:#000000">
				<g
   id="g252"
   style="fill:#000000">
					<rect
   x="284.1"
   y="100.1"
   class="st0"
   width="3.1"
   height="97.5"
   id="rect250"
   style="fill:#000000" />
				</g>
			</g>
		</g>
		<g
   id="g264"
   style="fill:#000000">
			<g
   id="g262"
   style="fill:#000000">
				<g
   id="g260"
   style="fill:#000000">
					<circle
   class="st0"
   cx="285.7"
   cy="98.3"
   r="3.8"
   id="circle258"
   style="fill:#000000" />
				</g>
			</g>
		</g>
	</g>
	<g
   id="g292"
   style="fill:#000000">
		<g
   id="g274"
   style="fill:#000000">
			<g
   id="g272"
   style="fill:#000000">
				<g
   id="g270"
   style="fill:#000000">
					<rect
   x="275"
   y="145.1"
   class="st0"
   width="3.1"
   height="52.3"
   id="rect268"
   style="fill:#000000" />
				</g>
			</g>
		</g>
		<g
   id="g282"
   style="fill:#000000">
			<g
   id="g280"
   style="fill:#000000">
				<g
   id="g278"
   style="fill:#000000">
					<circle
   class="st0"
   cx="276.6"
   cy="143.6"
   r="3.8"
   id="circle276"
   style="fill:#000000" />
				</g>
			</g>
		</g>
		<g
   id="g290"
   style="fill:#000000">
			<g
   id="g288"
   style="fill:#000000">
				<g
   id="g286"
   style="fill:#000000">
					<circle
   class="st0"
   cx="266"
   cy="193.7"
   r="3.8"
   id="circle284"
   style="fill:#000000" />
				</g>
			</g>
		</g>
	</g>
	<g
   id="g310"
   style="fill:#000000">
		<g
   id="g300"
   style="fill:#000000">
			<g
   id="g298"
   style="fill:#000000">
				<g
   id="g296"
   style="fill:#000000">
					<rect
   x="339.5"
   y="84.1"
   class="st0"
   width="3.1"
   height="112.2"
   id="rect294"
   style="fill:#000000" />
				</g>
			</g>
		</g>
		<g
   id="g308"
   style="fill:#000000">
			<g
   id="g306"
   style="fill:#000000">
				<g
   id="g304"
   style="fill:#000000">
					<circle
   class="st0"
   cx="341.1"
   cy="84.1"
   r="3.8"
   id="circle302"
   style="fill:#000000" />
				</g>
			</g>
		</g>
	</g>
	<g
   id="g346"
   style="fill:#000000">
		<g
   id="g318"
   style="fill:#000000">
			<g
   id="g316"
   style="fill:#000000">
				<g
   id="g314"
   style="fill:#000000">
					<rect
   x="349"
   y="127.7"
   class="st0"
   width="3.1"
   height="68.6"
   id="rect312"
   style="fill:#000000" />
				</g>
			</g>
		</g>
		<g
   id="g326"
   style="fill:#000000">
			<g
   id="g324"
   style="fill:#000000">
				<g
   id="g322"
   style="fill:#000000">
					<circle
   class="st0"
   cx="350.6"
   cy="125.9"
   r="3.8"
   id="circle320"
   style="fill:#000000" />
				</g>
			</g>
		</g>
		<g
   id="g344"
   style="fill:#000000">
			<g
   id="g334"
   style="fill:#000000">
				<g
   id="g332"
   style="fill:#000000">
					<g
   id="g330"
   style="fill:#000000">
						<rect
   x="358.7"
   y="177.2"
   class="st0"
   width="3.1"
   height="20.7"
   id="rect328"
   style="fill:#000000" />
					</g>
				</g>
			</g>
			<g
   id="g342"
   style="fill:#000000">
				<g
   id="g340"
   style="fill:#000000">
					<g
   id="g338"
   style="fill:#000000">
						<circle
   class="st0"
   cx="360.2"
   cy="175.3"
   r="3.8"
   id="circle336"
   style="fill:#000000" />
					</g>
				</g>
			</g>
		</g>
	</g>
	<g
   id="g364"
   style="fill:#000000">
		<g
   id="g354"
   style="fill:#000000">
			<g
   id="g352"
   style="fill:#000000">
				<g
   id="g350"
   style="fill:#000000">
					<rect
   x="320.6"
   y="31.1"
   class="st0"
   width="3.1"
   height="167.2"
   id="rect348"
   style="fill:#000000" />
				</g>
			</g>
		</g>
		<g
   id="g362"
   style="fill:#000000">
			<g
   id="g360"
   style="fill:#000000">
				<g
   id="g358"
   style="fill:#000000">
					<circle
   class="st0"
   cx="322.2"
   cy="31.1"
   r="3.8"
   id="circle356"
   style="fill:#000000" />
				</g>
			</g>
		</g>
	</g>
	<g
   id="g382"
   style="fill:#000000">
		<g
   id="g372"
   style="fill:#000000">
			<g
   id="g370"
   style="fill:#000000">
				<g
   id="g368"
   style="fill:#000000">
					<rect
   x="302.2"
   y="38.9"
   class="st0"
   width="3.1"
   height="158.6"
   id="rect366"
   style="fill:#000000" />
				</g>
			</g>
		</g>
		<g
   id="g380"
   style="fill:#000000">
			<g
   id="g378"
   style="fill:#000000">
				<g
   id="g376"
   style="fill:#000000">
					<circle
   class="st0"
   cx="303.8"
   cy="36.8"
   r="3.8"
   id="circle374"
   style="fill:#000000" />
				</g>
			</g>
		</g>
	</g>
</g>
<g
   id="g468"
   style="fill:#000000">
	<g
   id="g402"
   style="fill:#000000">
		<g
   id="g392"
   style="fill:#000000">
			<g
   id="g390"
   style="fill:#000000">
				<g
   id="g388"
   style="fill:#000000">
					<rect
   x="496.5"
   y="34.1"
   class="st0"
   width="3.1"
   height="165.4"
   id="rect386"
   style="fill:#000000" />
				</g>
			</g>
		</g>
		<g
   id="g400"
   style="fill:#000000">
			<g
   id="g398"
   style="fill:#000000">
				<g
   id="g396"
   style="fill:#000000">
					<circle
   class="st0"
   cx="498.1"
   cy="35.4"
   r="3.8"
   id="circle394"
   style="fill:#000000" />
				</g>
			</g>
		</g>
	</g>
	<g
   id="g420"
   style="fill:#000000">
		<g
   id="g410"
   style="fill:#000000">
			<g
   id="g408"
   style="fill:#000000">
				<g
   id="g406"
   style="fill:#000000">
					<rect
   x="478.3"
   y="93.6"
   class="st0"
   width="3.1"
   height="106"
   id="rect404"
   style="fill:#000000" />
				</g>
			</g>
		</g>
		<g
   id="g418"
   style="fill:#000000">
			<g
   id="g416"
   style="fill:#000000">
				<g
   id="g414"
   style="fill:#000000">
					<circle
   class="st0"
   cx="479.8"
   cy="94.5"
   r="3.8"
   id="circle412"
   style="fill:#000000" />
				</g>
			</g>
		</g>
	</g>
	<g
   id="g438"
   style="fill:#000000">
		<g
   id="g428"
   style="fill:#000000">
			<g
   id="g426"
   style="fill:#000000">
				<g
   id="g424"
   style="fill:#000000">
					<rect
   x="469.4"
   y="139.3"
   class="st0"
   width="3.1"
   height="60.3"
   id="rect422"
   style="fill:#000000" />
				</g>
			</g>
		</g>
		<g
   id="g436"
   style="fill:#000000">
			<g
   id="g434"
   style="fill:#000000">
				<g
   id="g432"
   style="fill:#000000">
					<circle
   class="st0"
   cx="471"
   cy="139.3"
   r="3.8"
   id="circle430"
   style="fill:#000000" />
				</g>
			</g>
		</g>
	</g>
	<g
   id="g448"
   style="fill:#000000">
		<g
   id="g446"
   style="fill:#000000">
			<g
   id="g444"
   style="fill:#000000">
				<g
   id="g442"
   style="fill:#000000">
					<circle
   class="st0"
   cx="461.7"
   cy="191.7"
   r="3.8"
   id="circle440"
   style="fill:#000000" />
				</g>
			</g>
		</g>
	</g>
	<g
   id="g466"
   style="fill:#000000">
		<g
   id="g456"
   style="fill:#000000">
			<g
   id="g454"
   style="fill:#000000">
				<g
   id="g452"
   style="fill:#000000">
					<rect
   x="487.6"
   y="59.6"
   class="st0"
   width="3.1"
   height="136.9"
   id="rect450"
   style="fill:#000000" />
				</g>
			</g>
		</g>
		<g
   id="g464"
   style="fill:#000000">
			<g
   id="g462"
   style="fill:#000000">
				<g
   id="g460"
   style="fill:#000000">
					<circle
   class="st0"
   cx="489.2"
   cy="58.6"
   r="3.8"
   id="circle458"
   style="fill:#000000" />
				</g>
			</g>
		</g>
	</g>
</g>
<g
   id="g648"
   style="fill:#000000">
	<g
   id="g486"
   style="fill:#000000">
		<g
   id="g476"
   style="fill:#000000">
			<g
   id="g474"
   style="fill:#000000">
				<g
   id="g472"
   style="fill:#000000">
					<rect
   x="219.8"
   y="198.5"
   class="st0"
   width="3.1"
   height="164.6"
   id="rect470"
   style="fill:#000000" />
				</g>
			</g>
		</g>
		<g
   id="g484"
   style="fill:#000000">
			<g
   id="g482"
   style="fill:#000000">
				<g
   id="g480"
   style="fill:#000000">
					<circle
   class="st0"
   cx="221.4"
   cy="366.7"
   r="3.8"
   id="circle478"
   style="fill:#000000" />
				</g>
			</g>
		</g>
	</g>
	<g
   id="g504"
   style="fill:#000000">
		<g
   id="g494"
   style="fill:#000000">
			<g
   id="g492"
   style="fill:#000000">
				<g
   id="g490"
   style="fill:#000000">
					<rect
   x="237"
   y="198.5"
   class="st0"
   width="3.1"
   height="128.8"
   id="rect488"
   style="fill:#000000" />
				</g>
			</g>
		</g>
		<g
   id="g502"
   style="fill:#000000">
			<g
   id="g500"
   style="fill:#000000">
				<g
   id="g498"
   style="fill:#000000">
					<circle
   class="st0"
   cx="239.6"
   cy="329.6"
   r="3.8"
   id="circle496"
   style="fill:#000000" />
				</g>
			</g>
		</g>
	</g>
	<g
   id="g522"
   style="fill:#000000">
		<g
   id="g512"
   style="fill:#000000">
			<g
   id="g510"
   style="fill:#000000">
				<g
   id="g508"
   style="fill:#000000">
					<rect
   x="202.5"
   y="199.7"
   class="st0"
   width="3.1"
   height="144.7"
   id="rect506"
   style="fill:#000000" />
				</g>
			</g>
		</g>
		<g
   id="g520"
   style="fill:#000000">
			<g
   id="g518"
   style="fill:#000000">
				<g
   id="g516"
   style="fill:#000000">
					<circle
   class="st0"
   cx="204.1"
   cy="344.4"
   r="3.8"
   id="circle514"
   style="fill:#000000" />
				</g>
			</g>
		</g>
	</g>
	<g
   id="g540"
   style="fill:#000000">
		<g
   id="g530"
   style="fill:#000000">
			<g
   id="g528"
   style="fill:#000000">
				<g
   id="g526"
   style="fill:#000000">
					<rect
   x="247"
   y="198.6"
   class="st0"
   width="3.1"
   height="88.9"
   id="rect524"
   style="fill:#000000" />
				</g>
			</g>
		</g>
		<g
   id="g538"
   style="fill:#000000">
			<g
   id="g536"
   style="fill:#000000">
				<g
   id="g534"
   style="fill:#000000">
					<circle
   class="st0"
   cx="249.6"
   cy="291.3"
   r="3.8"
   id="circle532"
   style="fill:#000000" />
				</g>
			</g>
		</g>
	</g>
	<g
   id="g558"
   style="fill:#000000">
		<g
   id="g548"
   style="fill:#000000">
			<g
   id="g546"
   style="fill:#000000">
				<g
   id="g544"
   style="fill:#000000">
					<rect
   x="255.6"
   y="199.7"
   class="st0"
   width="3.1"
   height="42.2"
   id="rect542"
   style="fill:#000000" />
				</g>
			</g>
		</g>
		<g
   id="g556"
   style="fill:#000000">
			<g
   id="g554"
   style="fill:#000000">
				<g
   id="g552"
   style="fill:#000000">
					<circle
   class="st0"
   cx="257.1"
   cy="244.6"
   r="3.8"
   id="circle550"
   style="fill:#000000" />
				</g>
			</g>
		</g>
	</g>
	<g
   id="g576"
   style="fill:#000000">
		<g
   id="g566"
   style="fill:#000000">
			<g
   id="g564"
   style="fill:#000000">
				<g
   id="g562"
   style="fill:#000000">
					<rect
   x="192.4"
   y="199.7"
   class="st0"
   width="3.1"
   height="115.2"
   id="rect560"
   style="fill:#000000" />
				</g>
			</g>
		</g>
		<g
   id="g574"
   style="fill:#000000">
			<g
   id="g572"
   style="fill:#000000">
				<g
   id="g570"
   style="fill:#000000">
					<circle
   class="st0"
   cx="194"
   cy="315"
   r="3.8"
   id="circle568"
   style="fill:#000000" />
				</g>
			</g>
		</g>
	</g>
	<g
   id="g610"
   style="fill:#000000">
		<g
   id="g592"
   style="fill:#000000">
			<g
   id="g582"
   style="fill:#000000">
				<g
   id="g580"
   style="fill:#000000">
					<rect
   x="182.9"
   y="198.6"
   class="st0"
   width="3.1"
   height="72.5"
   id="rect578"
   style="fill:#000000" />
				</g>
			</g>
			<g
   id="g590"
   style="fill:#000000">
				<g
   id="g588"
   style="fill:#000000">
					<g
   id="g586"
   style="fill:#000000">
						<rect
   x="173.2"
   y="198.6"
   class="st0"
   width="3.1"
   height="25.6"
   id="rect584"
   style="fill:#000000" />
					</g>
				</g>
			</g>
		</g>
		<g
   id="g600"
   style="fill:#000000">
			<g
   id="g598"
   style="fill:#000000">
				<g
   id="g596"
   style="fill:#000000">
					<circle
   class="st0"
   cx="184.5"
   cy="273.8"
   r="3.8"
   id="circle594"
   style="fill:#000000" />
				</g>
			</g>
		</g>
		<g
   id="g608"
   style="fill:#000000">
			<g
   id="g606"
   style="fill:#000000">
				<g
   id="g604"
   style="fill:#000000">
					
						<ellipse
   transform="matrix(0.9723 -0.2336 0.2336 0.9723 -47.7536 47.053)"
   class="st0"
   cx="174.8"
   cy="225.1"
   rx="3.8"
   ry="3.8"
   id="ellipse602"
   style="fill:#000000" />
				</g>
			</g>
		</g>
	</g>
	<g
   id="g628"
   style="fill:#000000">
		<g
   id="g618"
   style="fill:#000000">
			<g
   id="g616"
   style="fill:#000000">
				<g
   id="g614"
   style="fill:#000000">
					<rect
   x="209.3"
   y="199.7"
   class="st0"
   width="3.1"
   height="162.1"
   id="rect612"
   style="fill:#000000" />
				</g>
			</g>
		</g>
		<g
   id="g626"
   style="fill:#000000">
			<g
   id="g624"
   style="fill:#000000">
				<g
   id="g622"
   style="fill:#000000">
					<circle
   class="st0"
   cx="210.9"
   cy="363.9"
   r="3.8"
   id="circle620"
   style="fill:#000000" />
				</g>
			</g>
		</g>
	</g>
	<g
   id="g646"
   style="fill:#000000">
		<g
   id="g636"
   style="fill:#000000">
			<g
   id="g634"
   style="fill:#000000">
				<g
   id="g632"
   style="fill:#000000">
					<rect
   x="227.7"
   y="198.5"
   class="st0"
   width="3.1"
   height="153.1"
   id="rect630"
   style="fill:#000000" />
				</g>
			</g>
		</g>
		<g
   id="g644"
   style="fill:#000000">
			<g
   id="g642"
   style="fill:#000000">
				<g
   id="g640"
   style="fill:#000000">
					<circle
   class="st0"
   cx="230.3"
   cy="355.2"
   r="3.8"
   id="circle638"
   style="fill:#000000" />
				</g>
			</g>
		</g>
	</g>
</g>
<g
   id="g830"
   style="fill:#000000">
	<g
   id="g666"
   style="fill:#000000">
		<g
   id="g656"
   style="fill:#000000">
			<g
   id="g654"
   style="fill:#000000">
				<g
   id="g652"
   style="fill:#000000">
					<rect
   x="413.5"
   y="198.8"
   class="st0"
   width="3.1"
   height="170.1"
   id="rect650"
   style="fill:#000000" />
				</g>
			</g>
		</g>
		<g
   id="g664"
   style="fill:#000000">
			<g
   id="g662"
   style="fill:#000000">
				<g
   id="g660"
   style="fill:#000000">
					<circle
   class="st0"
   cx="415.1"
   cy="368"
   r="3.8"
   id="circle658"
   style="fill:#000000" />
				</g>
			</g>
		</g>
	</g>
	<g
   id="g684"
   style="fill:#000000">
		<g
   id="g674"
   style="fill:#000000">
			<g
   id="g672"
   style="fill:#000000">
				<g
   id="g670"
   style="fill:#000000">
					<rect
   x="432.8"
   y="198.8"
   class="st0"
   width="3.1"
   height="129.9"
   id="rect668"
   style="fill:#000000" />
				</g>
			</g>
		</g>
		<g
   id="g682"
   style="fill:#000000">
			<g
   id="g680"
   style="fill:#000000">
				<g
   id="g678"
   style="fill:#000000">
					<circle
   class="st0"
   cx="434.3"
   cy="329.8"
   r="3.8"
   id="circle676"
   style="fill:#000000" />
				</g>
			</g>
		</g>
	</g>
	<g
   id="g702"
   style="fill:#000000">
		<g
   id="g692"
   style="fill:#000000">
			<g
   id="g690"
   style="fill:#000000">
				<g
   id="g688"
   style="fill:#000000">
					<rect
   x="393.3"
   y="200"
   class="st0"
   width="3.1"
   height="144.7"
   id="rect686"
   style="fill:#000000" />
				</g>
			</g>
		</g>
		<g
   id="g700"
   style="fill:#000000">
			<g
   id="g698"
   style="fill:#000000">
				<g
   id="g696"
   style="fill:#000000">
					<circle
   class="st0"
   cx="394.8"
   cy="344.7"
   r="3.8"
   id="circle694"
   style="fill:#000000" />
				</g>
			</g>
		</g>
	</g>
	<g
   id="g720"
   style="fill:#000000">
		<g
   id="g710"
   style="fill:#000000">
			<g
   id="g708"
   style="fill:#000000">
				<g
   id="g706"
   style="fill:#000000">
					<rect
   x="442.6"
   y="198.8"
   class="st0"
   width="3.1"
   height="89.9"
   id="rect704"
   style="fill:#000000" />
				</g>
			</g>
		</g>
		<g
   id="g718"
   style="fill:#000000">
			<g
   id="g716"
   style="fill:#000000">
				<g
   id="g714"
   style="fill:#000000">
					<circle
   class="st0"
   cx="444.2"
   cy="290.1"
   r="3.8"
   id="circle712"
   style="fill:#000000" />
				</g>
			</g>
		</g>
	</g>
	<g
   id="g738"
   style="fill:#000000">
		<g
   id="g728"
   style="fill:#000000">
			<g
   id="g726"
   style="fill:#000000">
				<g
   id="g724"
   style="fill:#000000">
					<rect
   x="451.7"
   y="200"
   class="st0"
   width="3.1"
   height="40.8"
   id="rect722"
   style="fill:#000000" />
				</g>
			</g>
		</g>
		<g
   id="g736"
   style="fill:#000000">
			<g
   id="g734"
   style="fill:#000000">
				<g
   id="g732"
   style="fill:#000000">
					<circle
   class="st0"
   cx="453.3"
   cy="242.7"
   r="3.8"
   id="circle730"
   style="fill:#000000" />
				</g>
			</g>
		</g>
	</g>
	<g
   id="g756"
   style="fill:#000000">
		<g
   id="g746"
   style="fill:#000000">
			<g
   id="g744"
   style="fill:#000000">
				<g
   id="g742"
   style="fill:#000000">
					<rect
   x="385.1"
   y="200"
   class="st0"
   width="3.1"
   height="114.7"
   id="rect740"
   style="fill:#000000" />
				</g>
			</g>
		</g>
		<g
   id="g754"
   style="fill:#000000">
			<g
   id="g752"
   style="fill:#000000">
				<g
   id="g750"
   style="fill:#000000">
					<circle
   class="st0"
   cx="386.7"
   cy="317.2"
   r="3.8"
   id="circle748"
   style="fill:#000000" />
				</g>
			</g>
		</g>
	</g>
	<g
   id="g792"
   style="fill:#000000">
		<g
   id="g774"
   style="fill:#000000">
			<g
   id="g762"
   style="fill:#000000">
				<g
   id="g760"
   style="fill:#000000">
					<rect
   x="375.7"
   y="200"
   class="st0"
   width="3.1"
   height="75.7"
   id="rect758"
   style="fill:#000000" />
				</g>
			</g>
			<g
   id="g772"
   style="fill:#000000">
				<g
   id="g770"
   style="fill:#000000">
					<g
   id="g768"
   style="fill:#000000">
						<g
   id="g766"
   style="fill:#000000">
							<rect
   x="368.5"
   y="198.8"
   class="st0"
   width="3.1"
   height="28.6"
   id="rect764"
   style="fill:#000000" />
						</g>
					</g>
				</g>
			</g>
		</g>
		<g
   id="g782"
   style="fill:#000000">
			<g
   id="g780"
   style="fill:#000000">
				<g
   id="g778"
   style="fill:#000000">
					<circle
   class="st0"
   cx="377.2"
   cy="276.5"
   r="3.8"
   id="circle776"
   style="fill:#000000" />
				</g>
			</g>
		</g>
		<g
   id="g790"
   style="fill:#000000">
			<g
   id="g788"
   style="fill:#000000">
				<g
   id="g786"
   style="fill:#000000">
					
						<ellipse
   transform="matrix(0.993 -0.1185 0.1185 0.993 -24.3378 45.3197)"
   class="st0"
   cx="369"
   cy="227.4"
   rx="3.8"
   ry="3.8"
   id="ellipse784"
   style="fill:#000000" />
				</g>
			</g>
		</g>
	</g>
	<g
   id="g810"
   style="fill:#000000">
		<g
   id="g800"
   style="fill:#000000">
			<g
   id="g798"
   style="fill:#000000">
				<g
   id="g796"
   style="fill:#000000">
					<rect
   x="403"
   y="200"
   class="st0"
   width="3.1"
   height="162.1"
   id="rect794"
   style="fill:#000000" />
				</g>
			</g>
		</g>
		<g
   id="g808"
   style="fill:#000000">
			<g
   id="g806"
   style="fill:#000000">
				<g
   id="g804"
   style="fill:#000000">
					<circle
   class="st0"
   cx="404.6"
   cy="364.2"
   r="3.8"
   id="circle802"
   style="fill:#000000" />
				</g>
			</g>
		</g>
	</g>
	<g
   id="g828"
   style="fill:#000000">
		<g
   id="g818"
   style="fill:#000000">
			<g
   id="g816"
   style="fill:#000000">
				<g
   id="g814"
   style="fill:#000000">
					<rect
   x="422.4"
   y="198.8"
   class="st0"
   width="3.1"
   height="153.7"
   id="rect812"
   style="fill:#000000" />
				</g>
			</g>
		</g>
		<g
   id="g826"
   style="fill:#000000">
			<g
   id="g824"
   style="fill:#000000">
				<g
   id="g822"
   style="fill:#000000">
					<circle
   class="st0"
   cx="424"
   cy="355.5"
   r="3.8"
   id="circle820"
   style="fill:#000000" />
				</g>
			</g>
		</g>
	</g>
</g>
<g
   id="g836"
   style="fill:#000000">
	<g
   id="g834"
   style="fill:#000000">
		<rect
   x="71.6"
   y="196.8"
   class="st0"
   width="451.1"
   height="3"
   id="rect832"
   style="fill:#000000" />
	</g>
</g>
<g
   id="g842"
   style="fill:#000000">
	<g
   id="g840"
   style="fill:#000000">
		<path
   class="st0"
   d="M530.2,214.2v1h-6.5v-1h0.2c0.3,0,0.5,0,0.8-0.1c0.2,0,0.4-0.1,0.6-0.2c0.2-0.1,0.3-0.3,0.4-0.5    c0.1-0.2,0.2-0.5,0.2-0.9V205c0-0.4-0.1-0.6-0.2-0.9c-0.1-0.2-0.2-0.4-0.4-0.5c-0.2-0.1-0.4-0.2-0.6-0.2c-0.2,0-0.5-0.1-0.8-0.1    h-0.1v-1h3.9l0.3,2h0.1c0.3-0.4,0.5-0.8,0.8-1.1c0.3-0.3,0.6-0.5,0.9-0.7c0.3-0.2,0.6-0.3,1-0.3c0.3-0.1,0.7-0.1,1.1-0.1    c0.6,0,1.2,0.1,1.7,0.3c0.5,0.2,0.9,0.5,1.3,0.8c0.3,0.4,0.6,0.9,0.8,1.5c0.2,0.6,0.3,1.3,0.3,2.1v5.7c0,0.4,0,0.7,0.1,0.9    c0.1,0.2,0.2,0.4,0.4,0.5c0.2,0.1,0.4,0.2,0.6,0.2c0.2,0,0.5,0.1,0.7,0.1h0.1v1h-4.2v-8.3c0-0.5,0-1-0.1-1.4    c-0.1-0.4-0.2-0.8-0.5-1c-0.2-0.3-0.5-0.5-0.8-0.6c-0.3-0.1-0.7-0.2-1.2-0.2c-0.5,0-1,0.1-1.4,0.3c-0.4,0.2-0.7,0.5-0.9,0.9    c-0.2,0.4-0.4,0.8-0.5,1.2c-0.1,0.5-0.1,1-0.1,1.5v5.1c0,0.4,0.1,0.6,0.2,0.9s0.2,0.4,0.4,0.5c0.2,0.1,0.4,0.2,0.6,0.2    C529.6,214.2,529.9,214.2,530.2,214.2L530.2,214.2z"
   id="path838"
   style="fill:#000000" />
	</g>
</g>
<g
   id="g848"
   style="fill:#000000">
	<g
   id="g846"
   style="fill:#000000">
		<polygon
   class="st0"
   points="511.8,197.9 504,202.4 504,193.4   "
   id="polygon844"
   style="fill:#000000" />
	</g>
</g>
<g
   id="g858"
   style="fill:#000000;stroke:none;stroke-opacity:1">
	<g
   id="g852"
   style="fill:#000000;stroke:none;stroke-opacity:1">
		<rect
   x="68.1"
   y="25.4"
   class="st0"
   width="3"
   height="351.1"
   id="rect850"
   style="fill:#000000;stroke:none;stroke-opacity:1" />
	</g>
	<g
   id="g856"
   style="fill:#000000;stroke:none;stroke-opacity:1">
		<polygon
   class="st0"
   points="69.6,21.5 65.1,29.3 74.1,29.3   "
   id="polygon854"
   style="fill:#000000;stroke:none;stroke-opacity:1" />
	</g>
</g>
</svg>